<svg width="21" height="23" viewBox="0 0 21 23" fill="none" xmlns="http://www.w3.org/2000/svg">
<path d="M12.3631 21.4271C12.1737 21.7504 11.902 22.0187 11.575 22.2052C11.248 22.3918 10.8773 22.49 10.5 22.49C10.1227 22.49 9.75195 22.3918 9.42497 22.2052C9.098 22.0187 8.82624 21.7504 8.63691 21.4271M16.9615 7.5604C16.9615 5.86302 16.2808 4.23515 15.069 3.03492C13.8572 1.83468 12.2137 1.1604 10.5 1.1604C8.78628 1.1604 7.14276 1.83468 5.93099 3.03492C4.71922 4.23515 4.03845 5.86302 4.03845 7.5604C4.03845 15.0271 0.807678 17.1604 0.807678 17.1604H20.1923C20.1923 17.1604 16.9615 15.0271 16.9615 7.5604Z" stroke="white" stroke-opacity="0.38" stroke-linecap="round" stroke-linejoin="round"/>
</svg>
